<svg width="16" height="16" viewBox="0 0 16 16" fill="currentColor" stroke="none">
  <path d="M7.38,14.99v-2.57l-.57.57-.87-.87,2.06-2.06,2.06,2.06-.87.87-.57-.57v2.57h-1.23ZM3.89,10.06l-.87-.87.57-.57H1.01v-1.23h2.57l-.57-.57.87-.87,2.06,2.06-2.06,2.06ZM12.11,10.06l-2.06-2.06,2.06-2.06.87.87-.57.57h2.57v1.23h-2.57l.57.57-.87.87ZM8,9.03c-.29,0-.53-.1-.73-.3s-.3-.44-.3-.73.1-.53.3-.73c.2-.2.44-.3.73-.3s.53.1.73.3c.2.2.3.44.3.73s-.1.53-.3.73c-.2.2-.44.3-.73.3ZM8,5.94l-2.06-2.06.87-.87.57.57V1.01h1.23v2.57l.57-.57.87.87-2.06,2.06Z"/>
</svg>