<?xml version="1.0" encoding="UTF-8"?>
<svg id="Layer_1" xmlns="http://www.w3.org/2000/svg" version="1.1" viewBox="0 0 16 16">
  <!-- Generator: Adobe Illustrator 29.4.0, SVG Export Plug-In . SVG Version: 2.1.0 Build 152)  -->
  <defs>
    <style>
      .st0 {
        fill: none;
        stroke: #000;
        stroke-width: .9px;
      }
    </style>
  </defs>
  <g>
    <line class="st0" x1="8" y1="1.3" x2="8" y2="14.7"/>
    <polygon points="5.1 3.6 5.6 4.1 8 1.6 10.4 4.1 10.9 3.6 8 .5 5.1 3.6"/>
    <polygon points="5.1 12.4 5.6 11.9 8 14.4 10.4 11.9 10.9 12.4 8 15.5 5.1 12.4"/>
  </g>
  <g>
    <line class="st0" x1="1.3" y1="8" x2="14.7" y2="8"/>
    <polygon points="3.6 10.9 4.1 10.4 1.6 8 4.1 5.6 3.6 5.1 .5 8 3.6 10.9"/>
    <polygon points="12.4 10.9 11.9 10.4 14.4 8 11.9 5.6 12.4 5.1 15.5 8 12.4 10.9"/>
  </g>
</svg>