<svg width="16" height="16" viewBox="0 0 16 16" fill="none" stroke="currentColor" stroke-linecap="round" stroke-linejoin="round">
  <line  stroke-width="1.5"  x1="1.3" y1="8" x2="14.7" y2="8"/>
  <polygon stroke-width="0.5"  points="3.6 10.9 4.1 10.4 1.6 8 4.1 5.6 3.6 5.1 .5 8 3.6 10.9"/>
  <polygon stroke-width="0.5"  points="12.4 10.9 11.9 10.4 14.4 8 11.9 5.6 12.4 5.1 15.5 8 12.4 10.9"/>
  <line stroke-width="1.5"  x1="8" y1="1.3" x2="8" y2="14.7"/>
  <polygon stroke-width="0.5"  points="5.1 3.6 5.6 4.1 8 1.6 10.4 4.1 10.9 3.6 8 .5 5.1 3.6"/>
  <polygon stroke-width="0.5"  points="5.1 12.4 5.6 11.9 8 14.4 10.4 11.9 10.9 12.4 8 15.5 5.1 12.4"/>
</svg>