<?xml version="1.0" encoding="UTF-8"?>
<svg id="Layer_1" xmlns="http://www.w3.org/2000/svg" version="1.1" viewBox="0 0 16 16">
  <!-- Generator: Adobe Illustrator 30.3.0, SVG Export Plug-In . SVG Version: 2.1.3 Build 182)  -->
  <defs>
    <style>
      .st0 {
        fill: #fae571;
      }

      .st1 {
        fill: #ab87ff;
      }

      .st2 {
        fill: #68e0a1;
      }

      .st3 {
        fill: #e5827f;
      }

      .st4 {
        fill: #fff;
      }

      .st5 {
        fill: #5ecdf6;
      }
    </style>
  </defs>
  <path d="M14.52,6.97c-.29-.08-.58-.14-.87-.2-.09-.02-.12-.06-.14-.14-.14-.55-.36-1.09-.66-1.57-.04-.07-.04-.11,0-.18.16-.25.32-.51.48-.77.09-.15.09-.21-.04-.34-.36-.36-.73-.73-1.09-1.09-.12-.12-.18-.13-.34-.04-.26.16-.51.32-.77.48-.06.04-.11.04-.18,0-.49-.3-1.02-.52-1.58-.66-.08-.02-.11-.05-.13-.12-.06-.3-.14-.6-.21-.9-.04-.16-.08-.2-.24-.2h-1.56c-.16,0-.21.04-.24.2-.07.3-.14.59-.2.88-.02.09-.06.12-.14.14-.55.13-1.09.35-1.57.65-.07.04-.11.04-.18,0-.26-.16-.52-.33-.78-.49-.14-.08-.2-.08-.31.03-.37.37-.74.74-1.11,1.11-.11.11-.12.18-.03.31.16.26.32.52.49.78.04.06.04.11,0,.18-.31.49-.52,1.02-.66,1.58-.02.08-.05.11-.12.13-.3.07-.6.14-.9.21-.16.04-.2.08-.2.24v1.56c0,.16.04.21.2.25.3.07.6.14.9.21.08.02.1.05.13.13.14.56.36,1.09.66,1.58.04.07.04.11,0,.18-.16.26-.33.52-.49.78-.08.14-.08.2.03.31.37.37.74.74,1.11,1.11.11.11.18.12.31.03.26-.16.52-.32.78-.49.06-.04.11-.05.18,0,.49.31,1.02.52,1.58.66.08.02.11.05.13.13.06.3.13.59.21.88.02.08.08.14.13.22h1.79c.04-.07.11-.14.13-.22.08-.29.14-.59.21-.88.02-.08.05-.1.13-.12.56-.14,1.09-.36,1.58-.66.07-.04.11-.04.18,0,.26.16.52.33.78.49.14.08.2.08.31-.03l1.11-1.11c.11-.11.12-.18.03-.31-.16-.26-.32-.52-.49-.78-.04-.06-.04-.11,0-.18.31-.49.52-1.02.66-1.58.02-.08.06-.11.14-.13.29-.06.58-.13.87-.21.08-.02.14-.08.22-.13v-1.79c-.08-.05-.15-.11-.23-.13h0ZM14.37,8.69c-.3.07-.59.15-.89.2-.18.04-.26.12-.3.3-.13.59-.36,1.14-.69,1.64-.09.14-.1.25,0,.38.17.26.33.53.49.78l-.98.98c-.25-.15-.51-.31-.77-.48-.14-.1-.25-.09-.4,0-.51.34-1.08.57-1.68.69-.14.03-.22.1-.25.25-.06.28-.13.55-.19.83,0,.04-.02.07-.03.1h-1.37c-.07-.3-.15-.59-.2-.88-.04-.18-.11-.27-.3-.31-.59-.12-1.14-.36-1.64-.69-.14-.09-.25-.1-.4,0-.23.16-.47.29-.7.44-.07.04-.1.04-.16-.02-.28-.28-.55-.55-.83-.83-.06-.06-.06-.1-.02-.16.16-.25.31-.5.47-.75.07-.1.08-.2,0-.3-.35-.54-.6-1.12-.73-1.75-.03-.13-.1-.19-.22-.22-.32-.07-.63-.14-.95-.22,0-.44,0-.88,0-1.31,0-.03.06-.08.1-.09.29-.08.58-.14.87-.21.11-.02.18-.08.2-.2.14-.64.39-1.24.75-1.79.06-.1.05-.19-.01-.28-.18-.28-.35-.55-.52-.83.33-.33.65-.65.99-.98.26.16.54.33.81.51.11.07.2.07.32,0,.53-.35,1.11-.59,1.74-.72.13-.03.2-.09.22-.22.06-.29.13-.57.2-.86.02-.08.04-.1.12-.1.4,0,.79,0,1.19,0,.08,0,.1.03.12.1.06.29.14.58.2.87.02.11.08.18.19.2.64.14,1.24.38,1.79.74.1.06.19.05.28,0,.28-.18.55-.35.82-.51.33.33.65.65.98.98-.16.26-.32.53-.49.79-.08.13-.08.23,0,.36.34.52.58,1.09.71,1.7.03.14.1.21.24.24.28.06.56.13.85.2.04.01.1.06.1.09,0,.45,0,.88,0,1.33h0Z"/>
  <path class="st4" d="M14.36,7.38s-.06-.08-.1-.09c-.28-.07-.56-.14-.85-.2-.14-.03-.21-.1-.24-.24-.13-.61-.37-1.18-.71-1.7-.08-.13-.08-.23,0-.36.18-.26.34-.53.49-.79-.33-.33-.65-.65-.98-.98-.27.16-.55.34-.82.51-.1.06-.18.07-.28,0-.55-.36-1.15-.61-1.79-.74-.11-.02-.17-.09-.19-.2-.06-.29-.14-.58-.2-.87-.02-.08-.04-.1-.12-.1-.4,0-.79,0-1.19,0-.08,0-.1.02-.12.1-.06.28-.14.57-.2.86-.03.13-.1.2-.22.22-.63.13-1.2.38-1.74.72-.11.07-.2.07-.32,0-.27-.18-.55-.34-.81-.51-.33.32-.65.64-.99.97.17.27.34.55.51.83.06.1.08.18.01.28-.36.55-.61,1.15-.75,1.79-.02.11-.09.17-.2.2-.29.06-.58.13-.87.21-.04.01-.1.06-.1.09,0,.43,0,.87,0,1.31.32.08.64.16.95.22.13.03.2.09.22.22.13.63.38,1.21.73,1.75.07.1.06.2,0,.3-.16.25-.31.5-.47.75-.04.07-.04.11.02.16.28.28.55.55.83.83.06.06.1.06.16.02.23-.15.47-.28.7-.44.14-.1.25-.1.4,0,.5.33,1.05.56,1.64.69.18.04.26.13.3.31.06.3.13.59.2.88h1.37s.02-.07.03-.1c.06-.28.13-.55.19-.83.03-.14.1-.22.25-.25.6-.13,1.17-.36,1.68-.69.14-.09.25-.1.4,0,.26.17.52.33.77.48l.98-.98c-.16-.25-.31-.52-.49-.78-.09-.14-.09-.25,0-.38.33-.5.56-1.05.69-1.64.04-.18.12-.27.3-.3.3-.06.59-.13.89-.2.01-.45.01-.88,0-1.31h0ZM11.08,10.96c-.72.77-1.61,1.21-2.66,1.33-.16.02-.32.02-.48.03h0c-.43,0-.85-.07-1.27-.19-.79-.24-1.11-1.17-.65-1.85.14-.21.3-.41.45-.61.16-.22.19-.47.06-.72-.14-.25-.36-.38-.65-.37-.07,0-.14.02-.21.04-.31.09-.61.19-.92.28-.52.15-1.04-.17-1.1-.7-.03-.24,0-.49.04-.74.25-1.47,1.05-2.53,2.37-3.19.71-.35,1.46-.48,2.25-.41,1.3.12,2.34.71,3.11,1.77,1.19,1.62,1.04,3.87-.35,5.33h0Z"/>
  <path d="M12.01,5.22c-.89-1.23-2.1-1.92-3.62-2.07-.92-.09-1.8.07-2.62.47-1.55.77-2.48,2.01-2.77,3.72-.05.28-.07.58-.04.86.07.62.68.99,1.28.81.36-.11.72-.22,1.08-.33.08-.02.16-.05.24-.05.34-.01.6.13.75.43.15.29.12.57-.07.84-.17.24-.36.47-.52.72-.54.8-.15,1.89.76,2.16.48.14.97.22,1.48.22h0c.19-.01.37-.02.56-.04,1.22-.14,2.26-.66,3.1-1.55,1.61-1.7,1.78-4.32.4-6.21h0ZM8.98,12.62c-.33.07-.67.1-1.01.11h-.02c-.47,0-.93-.07-1.38-.2-.74-.22-1.04-1.09-.61-1.73.17-.24.35-.47.52-.72.46-.64.12-1.52-.66-1.68-.19-.04-.38-.03-.56.03-.36.11-.72.22-1.08.33-.45.13-.91-.13-.95-.57-.02-.21,0-.43.02-.65.14-1.13.63-2.08,1.47-2.85.74-.67,1.6-1.09,2.59-1.21,1.59-.19,2.96.28,4.07,1.43.69.72,1.1,1.59,1.23,2.58.32,2.37-1.27,4.63-3.63,5.13ZM7.94,12.73h.03-.03Z"/>
  <path class="st4" d="M12.61,7.48c-.13-.99-.54-1.86-1.23-2.58-1.11-1.15-2.48-1.62-4.07-1.43-.99.12-1.86.54-2.59,1.21-.83.77-1.33,1.72-1.47,2.85-.03.21-.04.43-.02.65.04.44.5.71.95.57.36-.11.72-.22,1.08-.33.19-.06.37-.07.56-.03.77.16,1.11,1.04.66,1.68-.17.24-.35.47-.52.72-.44.64-.13,1.51.61,1.73.45.14.91.2,1.38.2h.02c.34-.01.68-.04,1.01-.11,2.35-.49,3.94-2.75,3.63-5.13h0ZM5.35,7.59c-.51,0-.93-.42-.93-.94h0c0-.52.41-.93.93-.94.51,0,.93.42.93.94,0,.52-.41.94-.93.94h0ZM7.77,11.92c-.5,0-.92-.43-.92-.94,0-.51.42-.93.94-.93.52,0,.93.41.93.93,0,.52-.42.94-.94.93ZM7.94,5.91c-.51,0-.93-.42-.93-.94s.42-.93.94-.93c.52,0,.93.42.93.94,0,.52-.41.93-.94.93h0ZM10.58,10.6c-.51,0-.92-.43-.92-.95,0-.51.42-.92.94-.92s.93.42.93.94c0,.53-.42.94-.94.93h0ZM10.59,7.43c-.52,0-.93-.43-.93-.95,0-.51.43-.92.94-.92.52,0,.93.42.93.94h0c0,.52-.42.94-.94.93h0Z"/>
  <path d="M5.35,5.73c-.52,0-.93.42-.93.94h0c0,.52.42.94.93.94.52,0,.93-.41.93-.93,0-.52-.41-.94-.93-.94h0ZM5.81,7.12s-.03.03-.05.04c-.11.09-.26.15-.41.15-.05,0-.09,0-.13-.01-.02,0-.04,0-.06-.02-.04-.01-.08-.03-.12-.05-.04-.02-.07-.05-.1-.07-.02-.01-.03-.03-.05-.04-.12-.12-.19-.28-.19-.46,0-.11.03-.22.08-.31,0-.02.02-.04.03-.05,0,0,.01-.02.02-.02.01-.02.02-.03.04-.05,0,0,.01-.02.02-.02.12-.12.27-.19.45-.19.36,0,.65.28.66.64,0,.19-.07.35-.19.47Z"/>
  <path d="M10.59,8.74c-.51,0-.93.41-.94.92,0,.52.4.94.92.95.53,0,.94-.4.94-.93,0-.53-.41-.94-.93-.94ZM11.2,9.87s-.02.06-.04.09c0,.02-.02.04-.03.05-.01.02-.02.03-.04.05h0s-.02.03-.04.05c-.09.09-.21.16-.35.19-.05,0-.1.01-.15.01-.35,0-.63-.3-.62-.67,0-.07.01-.13.03-.19.03-.1.09-.19.16-.26.12-.12.28-.19.47-.18h0c.1,0,.19.02.27.07h0c.06.03.11.06.15.1,0,0,.02.01.02.02.12.12.19.29.19.47,0,.07,0,.14-.03.2h0Z"/>
  <path d="M7.78,10.06c-.52,0-.94.41-.94.93s.41.93.92.94c.52,0,.94-.41.94-.93,0-.52-.41-.93-.93-.93ZM8.14,11.52s-.04.02-.05.03c-.02,0-.04.02-.06.03,0,0-.02,0-.03.01-.02,0-.04.01-.06.02-.05.01-.11.02-.16.02-.18,0-.34-.07-.46-.19-.02-.02-.03-.03-.04-.05-.02-.02-.04-.05-.05-.07-.01-.02-.02-.04-.03-.05,0-.02-.02-.03-.02-.05,0-.01,0-.02-.01-.04,0-.02-.01-.04-.02-.06,0,0,0,0,0-.01,0-.02,0-.04,0-.06,0-.02,0-.05,0-.07,0-.07,0-.13.03-.2,0,0,0-.02,0-.03.02-.07.06-.13.11-.19.01-.02.02-.03.04-.05.07-.07.14-.12.23-.15,0,0,.02,0,.03,0,.06-.02.13-.03.19-.03.15,0,.29.05.4.14.01,0,.02.02.04.03.13.12.21.29.21.48,0,.21-.12.41-.29.53h0Z"/>
  <path d="M7.95,4.05c-.52,0-.94.41-.94.93s.41.94.93.94.93-.41.94-.93c0-.52-.41-.93-.93-.94h0ZM8.4,5.44s-.05.04-.07.06c-.11.08-.25.13-.4.13-.07,0-.13-.01-.19-.03,0,0-.02,0-.03,0h0s-.04-.02-.06-.02-.04-.02-.05-.03c-.05-.03-.08-.06-.12-.09-.12-.12-.19-.28-.19-.46,0-.06,0-.11.02-.16.01-.04.02-.08.05-.12,0-.02.02-.04.03-.05,0-.02.02-.03.03-.05.02-.02.04-.05.06-.07.12-.12.27-.19.46-.19.08,0,.15.01.22.04.02,0,.04.02.06.02.05.02.09.05.13.08.02.01.03.03.05.04.12.12.19.28.19.46,0,.17-.07.33-.19.45h0Z"/>
  <path d="M11.52,6.51c0-.52-.4-.93-.93-.94-.51,0-.93.4-.94.92,0,.52.41.95.93.95.52,0,.94-.41.94-.93h0ZM11.04,6.96c-.12.12-.28.19-.47.19-.12,0-.23-.04-.33-.09-.05-.03-.09-.06-.12-.09-.12-.12-.19-.28-.19-.46h0c0-.13.04-.26.11-.36.01-.02.02-.03.04-.05.01-.02.02-.03.04-.05.12-.12.27-.19.46-.19.05,0,.09,0,.13.01.04,0,.08.02.12.04.03.01.06.02.08.04.04.02.07.05.1.07,0,0,.02.02.02.02.03.03.06.06.08.09.01.02.02.04.03.05,0,0,0,.02.01.03,0,.02.02.04.02.06,0,0,0,.02,0,.03,0,0,0,.02,0,.02.02.06.02.12.02.17,0,.2-.07.36-.19.47h0Z"/>
  <path class="st5" d="M4.71,6.67c0-.36.28-.65.64-.65.36,0,.65.28.65.64,0,.36-.29.65-.64.65s-.64-.29-.65-.64Z"/>
  <path class="st3" d="M10.6,9.03c.36,0,.64.3.63.67,0,.36-.3.64-.67.63-.35,0-.63-.3-.62-.67,0-.36.3-.64.66-.63h0Z"/>
  <path class="st1" d="M7.78,11.64c-.36,0-.64-.29-.65-.64,0-.36.29-.65.64-.65s.65.29.65.65c0,.35-.28.64-.64.64Z"/>
  <path class="st2" d="M7.3,4.97c0-.36.29-.64.64-.64s.65.29.64.65c0,.36-.29.64-.65.64-.35,0-.63-.28-.63-.65h0Z"/>
  <path class="st0" d="M9.94,6.5c0-.36.29-.64.64-.64.36,0,.65.29.65.65s-.29.65-.65.64c-.35,0-.64-.29-.64-.65h0Z"/>
</svg>