<svg
  xmlns="http://www.w3.org/2000/svg"
  viewBox="0 0 24 24"
  fill="none"
  stroke="currentColor"
  stroke-width="2"
  stroke-linecap="round"
  stroke-linejoin="round"
>


    <path d="M3.18,9.25c0-.31,0-.46.01-.59.12-1.25,1.12-2.25,2.37-2.37.13-.01.29-.01.62-.01.13,0,.19,0,.24,0,.68-.04,1.28-.47,1.53-1.1.02-.05.04-.11.08-.22s.06-.17.08-.22c.25-.63.85-1.06,1.53-1.1.05,0,.11,0,.23,0h4.27c.12,0,.18,0,.23,0,.68.04,1.28.47,1.53,1.1.02.05.04.11.08.22s.06.17.08.22c.25.63.85,1.06,1.53,1.1.05,0,.12,0,.24,0,.33,0,.49,0,.62.01,1.25.12,2.25,1.12,2.37,2.37.01.13.01.28.01.59v6.9c0,1.48,0,2.22-.29,2.79-.25.5-.66.9-1.16,1.16-.57.29-1.31.29-2.79.29H7.41c-1.48,0-2.22,0-2.79-.29-.5-.25-.9-.66-1.16-1.16-.29-.57-.29-1.31-.29-2.79v-6.9Z"/>
  <path d="M12,16.41c1.95,0,3.53-1.58,3.53-3.53s-1.58-3.53-3.53-3.53-3.53,1.58-3.53,3.53,1.58,3.53,3.53,3.53Z"/>
</svg>
