<svg width="16" height="16" viewBox="0 0 16 16" fill="currentColor" aria-hidden="true">
  <path d="M3.16,14.82c-.36,0-.67-.13-.93-.39-.26-.26-.39-.57-.39-.93V3.82c0-.36.13-.67.39-.93.26-.26.57-.39.93-.39h3.14c.1-.38.3-.69.61-.94s.68-.38,1.09-.38.78.13,1.09.38.52.57.61.94h3.14c.36,0,.67.13.93.39.26.26.39.57.39.93v9.69c0,.36-.13.67-.39.93-.26.26-.57.39-.93.39H3.16ZM3.16,13.5h9.69V3.82h-1.32v2.2h-7.04v-2.2h-1.32v9.69ZM8.47,3.63c.13-.13.19-.28.19-.47s-.06-.34-.19-.47-.28-.19-.47-.19-.34.06-.47.19-.19.28-.19.47.06.34.19.47c.13.13.28.19.47.19s.34-.06.47-.19Z"/>
</svg>
