
<svg width="16" height="16" viewBox="0 0 16 16" fill="currentColor" stroke="none" stroke-linecap="round" stroke-linejoin="round">
  <path d="M8,.29C3.74.29.29,3.74.29,8s3.45,7.71,7.71,7.71c.71,0,1.29-.57,1.29-1.29,0-.33-.13-.63-.33-.87-.2-.22-.33-.52-.33-.85,0-.71.57-1.29,1.29-1.29h1.52c2.36,0,4.28-1.92,4.28-4.28C15.71,3.36,12.26.29,8,.29ZM3.29,8c-.71,0-1.29-.57-1.29-1.29s.57-1.29,1.29-1.29,1.29.57,1.29,1.29-.57,1.29-1.29,1.29ZM5.86,4.57c-.71,0-1.29-.57-1.29-1.29s.57-1.29,1.29-1.29,1.29.57,1.29,1.29-.57,1.29-1.29,1.29ZM10.14,4.57c-.71,0-1.29-.57-1.29-1.29s.57-1.29,1.29-1.29,1.29.57,1.29,1.29-.57,1.29-1.29,1.29ZM12.71,8c-.71,0-1.29-.57-1.29-1.29s.57-1.29,1.29-1.29,1.29.57,1.29,1.29-.57,1.29-1.29,1.29Z"/>
</svg>