<svg width="16" height="16" viewBox="0 0 16 16" fill="currentColor" stroke="none">
  <path d="M6.69,9.31c-.36-.36-.54-.8-.54-1.31s.18-.95.54-1.31.8-.54,1.31-.54.95.18,1.31.54.54.8.54,1.31-.18.95-.54,1.31c-.36.36-.8.54-1.31.54s-.95-.18-1.31-.54ZM8.33,8.33c.09-.09.13-.2.13-.33s-.04-.24-.13-.33-.2-.13-.33-.13-.24.04-.33.13-.13.2-.13.33.04.24.13.33.2.13.33.13.24-.04.33-.13ZM2.92,14.46c-.38,0-.71-.14-.98-.41-.27-.27-.41-.6-.41-.98v-3.23h1.38v3.23h3.23v1.38h-3.22ZM9.85,14.46v-1.38h3.23v-3.23h1.38v3.23c0,.38-.14.71-.41.98s-.6.41-.98.41h-3.23.01ZM1.54,6.15v-3.23c0-.38.14-.71.41-.98.27-.27.6-.41.98-.41h3.23v1.38h-3.24v3.23h-1.38ZM13.08,6.15v-3.23h-3.23v-1.38h3.23c.38,0,.71.14.98.41.27.27.41.6.41.98v3.23h-1.39Z"/>
</svg>
